<?xml version="1.0" encoding="UTF-8" standalone="no"?><!DOCTYPE svg PUBLIC "-//W3C//DTD SVG 1.1//EN" "http://www.w3.org/Graphics/SVG/1.1/DTD/svg11.dtd"><svg width="100%" height="100%" viewBox="0 0 721 800" version="1.1" xmlns="http://www.w3.org/2000/svg" xmlns:xlink="http://www.w3.org/1999/xlink" xml:space="preserve" xmlns:serif="http://www.serif.com/" style="fill-rule:evenodd;clip-rule:evenodd;stroke-linejoin:round;stroke-miterlimit:2;"><g><path d="M237.506,376.42c-6.928,-20.092 -20.784,-60.277 -25,-91.667c-6.25,-46.527 -24.306,-177.777 -12.5,-187.5c11.805,-9.722 59.027,96.528 83.333,129.167c18.193,24.431 38.512,47.893 62.5,66.667c31.944,25 104.861,52.43 129.167,83.333c21.314,27.1 15.972,70.139 16.666,102.083c0.656,30.144 -8.588,59.688 -12.5,89.584c-4.861,37.152 -15.278,95.139 -16.666,133.333c-1.166,32.044 17.361,102.083 8.333,95.833c-9.028,-6.25 -56.25,-96.527 -62.5,-133.333c-5.078,-29.906 19.633,-57.645 25,-87.5c5.555,-30.903 9.722,-65.972 8.333,-97.917c-1.378,-31.71 3.487,-69.229 -16.666,-93.75c-20.834,-25.347 -88.889,-59.722 -108.334,-58.333c-19.444,1.389 -9.558,44.305 -8.333,66.667c1.389,25.347 10.417,61.805 16.667,85.416c5.116,19.329 29.861,56.25 20.833,56.25c-8.501,0 -75.056,-105.555 -108.333,-158.333" style="fill:url(#_Linear1);"/><path d="M487.506,495.65c-0,-0 40.818,-20.427 54.166,-37.98c14.584,-19.177 27.909,-49.62 33.334,-77.083c5.555,-28.125 4.596,-61.459 -0,-91.667c-4.862,-31.944 -21.528,-70.139 -29.167,-100c-6.683,-26.126 -13.134,-54.379 -16.667,-79.167c-4.157,-29.17 9.38,-69.094 25,-87.5c9.68,-11.405 25,-18.055 37.5,-20.833c12.278,-2.728 25.695,0.694 37.5,4.167c11.806,3.472 22.549,8.137 33.334,16.666c8.367,6.618 15.676,20.298 20.341,28.108c2.189,3.664 3.796,11.12 4.659,13.559c1.388,3.929 34.027,38.889 33.333,41.667c-0.695,2.777 -35.565,-25.339 -37.5,-25c-22.956,4.022 -43.156,-23.245 -45.833,-45.834c-4.071,-34.345 -77.663,-5.366 -79.167,33.334c-0.815,20.979 3.579,47.539 8.333,70.833c6.945,34.028 26.389,98.611 33.334,133.333c4.933,24.666 11.36,50.029 8.333,75c-4.167,34.375 -12.389,91.265 -33.333,131.25c-22.917,43.75 -104.167,131.25 -104.167,131.25l16.667,-114.103Z" style="fill:url(#_Linear2);"/><path d="M175.223,196.011c32.391,18.062 -152.474,-194.677 -142.529,-180.287c28.719,41.557 67.919,158.246 142.529,180.287Z" style="fill:#96d3b2;"/><path d="M177.735,305.092c-0,0 26.254,-34.563 13.832,-34.606c-36.51,-0.125 -147.849,-60.408 -176.462,-88.411c-53.738,-52.593 87.131,119.314 162.63,123.017Z" style="fill:#96d3b2;"/><path d="M216.412,412.354c-0,0 3.34,-26.162 -2.783,-36.852c-6.396,-11.167 -35.597,-30.154 -35.597,-30.154c-88.835,-32.414 -194.296,-24.5 -156.406,-15.559c14.675,3.462 164.535,14.658 194.786,82.565Z" style="fill:url(#_Linear3);"/><path d="M131.805,495.581c-127.472,-49.05 -78.712,-55.048 194.347,34.415c16.538,5.419 -135.154,-11.638 -194.347,-34.415Z" style="fill:#43a3a6;"/></g><defs><linearGradient id="_Linear1" x1="0" y1="0" x2="1" y2="0" gradientUnits="userSpaceOnUse" gradientTransform="matrix(40.5469,107.262,-107.262,40.5469,258.333,305.092)"><stop offset="0" style="stop-color:#96d3b2;stop-opacity:1"/><stop offset="0.25" style="stop-color:#d1f3d5;stop-opacity:1"/><stop offset="0.48" style="stop-color:#e7ffe2;stop-opacity:1"/><stop offset="0.72" style="stop-color:#79ceb2;stop-opacity:1"/><stop offset="1" style="stop-color:#43a3a6;stop-opacity:1"/></linearGradient><linearGradient id="_Linear2" x1="0" y1="0" x2="1" y2="0" gradientUnits="userSpaceOnUse" gradientTransform="matrix(-35.4056,195.059,-483.451,-87.7524,633.333,172.08)"><stop offset="0" style="stop-color:#96d3b2;stop-opacity:1"/><stop offset="0.25" style="stop-color:#d1f3d5;stop-opacity:1"/><stop offset="0.48" style="stop-color:#e7ffe2;stop-opacity:1"/><stop offset="0.72" style="stop-color:#79ceb2;stop-opacity:1"/><stop offset="1" style="stop-color:#43a3a6;stop-opacity:1"/></linearGradient><linearGradient id="_Linear3" x1="0" y1="0" x2="1" y2="0" gradientUnits="userSpaceOnUse" gradientTransform="matrix(56.7574,136.182,-280.707,116.992,157.369,305.049)"><stop offset="0" style="stop-color:#96d3b2;stop-opacity:1"/><stop offset="0.25" style="stop-color:#d1f3d5;stop-opacity:1"/><stop offset="0.48" style="stop-color:#e7ffe2;stop-opacity:1"/><stop offset="0.72" style="stop-color:#79ceb2;stop-opacity:1"/><stop offset="1" style="stop-color:#43a3a6;stop-opacity:1"/></linearGradient></defs></svg>