<?xml version="1.0" encoding="UTF-8" standalone="no"?>
<!DOCTYPE svg PUBLIC "-//W3C//DTD SVG 1.1//EN" "http://www.w3.org/Graphics/SVG/1.1/DTD/svg11.dtd">
<svg width="100%" height="100%" viewBox="0 0 1010 1010" version="1.1" xmlns="http://www.w3.org/2000/svg" xmlns:xlink="http://www.w3.org/1999/xlink" xml:space="preserve" xmlns:serif="http://www.serif.com/" style="fill-rule:evenodd;clip-rule:evenodd;stroke-linejoin:round;stroke-miterlimit:2;">
    <g transform="matrix(1,0,0,1,-666,-11598)">
        <g id="art2" transform="matrix(1,0,0,1,-0.922156,-0.844872)">
            <rect x="666.922" y="11598.8" width="1010" height="1010" style="fill:none;"/>
            <clipPath id="_clip1">
                <rect x="666.922" y="11598.8" width="1010" height="1010"/>
            </clipPath>
            <g clip-path="url(#_clip1)">
                <g id="art-svgrepo-com.svg" transform="matrix(15.7812,0,0,15.7812,1172.84,12104.7)">
                    <g transform="matrix(1,0,0,1,-32,-32)">
                        <clipPath id="_clip2">
                            <rect x="0" y="0" width="64" height="64"/>
                        </clipPath>
                        <g clip-path="url(#_clip2)">
                            <g id="Layer_1">
                                <g>
                                    <circle cx="31.8" cy="32" r="32" style="fill:rgb(58,135,131);"/>
                                </g>
                                <g opacity="0.2">
                                    <path d="M32,12C23.5,12 14,17.4 10.9,27.7C9.3,32.9 16.1,30.8 16.5,36.9C16.9,41.8 15.4,43.5 15.1,46.5C14.7,50.5 24,56.5 32.3,56.1C44.6,55.4 54,46.3 54,34C54,21.7 44.3,12 32,12ZM24,48C21.8,48 20,46.2 20,44C20,41.8 21.8,40 24,40C26.2,40 28,41.8 28,44C28,46.2 26.2,48 24,48Z" style="fill:rgb(35,31,32);fill-rule:nonzero;"/>
                                </g>
                                <g>
                                    <path d="M32,10C23.5,10 14,15.4 10.9,25.7C9.3,30.9 16.1,28.8 16.5,34.9C16.9,39.8 15.4,41.5 15.1,44.5C14.7,48.5 24,54.5 32.3,54.1C44.6,53.4 54,44.3 54,32C54,19.7 44.3,10 32,10ZM24,46C21.8,46 20,44.2 20,42C20,39.8 21.8,38 24,38C26.2,38 28,39.8 28,42C28,44.2 26.2,46 24,46Z" style="fill:rgb(189,242,239);fill-rule:nonzero;"/>
                                </g>
                                <g opacity="0.2">
                                    <circle cx="20.7" cy="25" r="4" style="fill:rgb(35,31,32);"/>
                                </g>
                                <g opacity="0.2">
                                    <circle cx="32" cy="19.6" r="4" style="fill:rgb(35,31,32);"/>
                                </g>
                                <g opacity="0.2">
                                    <circle cx="43.2" cy="24.7" r="4" style="fill:rgb(35,31,32);"/>
                                </g>
                                <g opacity="0.2">
                                    <circle cx="46.2" cy="37.3" r="4" style="fill:rgb(35,31,32);"/>
                                </g>
                                <g opacity="0.2">
                                    <circle cx="37.1" cy="47.1" r="4" style="fill:rgb(35,31,32);"/>
                                </g>
                                <g>
                                    <circle cx="20.7" cy="23" r="4" style="fill:white;"/>
                                </g>
                                <g>
                                    <circle cx="32" cy="17.6" r="4" style="fill:white;"/>
                                </g>
                                <g>
                                    <circle cx="43.2" cy="22.7" r="4" style="fill:white;"/>
                                </g>
                                <g>
                                    <circle cx="46.2" cy="35.3" r="4" style="fill:white;"/>
                                </g>
                                <g>
                                    <circle cx="37.1" cy="45.1" r="4" style="fill:white;"/>
                                </g>
                            </g>
                        </g>
                    </g>
                </g>
            </g>
        </g>
    </g>
</svg>
