<?xml version="1.0" encoding="UTF-8" standalone="no"?>
<!DOCTYPE svg PUBLIC "-//W3C//DTD SVG 1.1//EN" "http://www.w3.org/Graphics/SVG/1.1/DTD/svg11.dtd">
<svg width="100%" height="100%" viewBox="0 0 358 510" version="1.1" xmlns="http://www.w3.org/2000/svg" xmlns:xlink="http://www.w3.org/1999/xlink" xml:space="preserve" xmlns:serif="http://www.serif.com/" style="fill-rule:evenodd;clip-rule:evenodd;stroke-linecap:round;stroke-linejoin:round;stroke-miterlimit:1.5;">
    <g transform="matrix(1,0,0,1,-34611,-16886)">
        <g>
            <g transform="matrix(1,0,0,0.49205,0,8656.17)">
                <path d="M34790.2,16931L34790.2,17047.2" style="fill:none;stroke:rgb(124,92,35);stroke-width:39.96px;"/>
            </g>
            <g transform="matrix(1,0,0,1,-976.341,819.211)">
                <path d="M35890,16444.2L35904.3,16450.8C35918.4,16452.7 35936.2,16427.5 35940.8,16420.5C35930.9,16508 35856.6,16576 35766.5,16576C35738.2,16576 35711.4,16569.3 35687.8,16557.3L35687.9,16556.2C35695.1,16556.9 35702.4,16557.3 35709.8,16557.3C35792.8,16557.3 35863.5,16510.1 35890,16444.2Z" style="fill:rgb(204,231,255);"/>
            </g>
            <g transform="matrix(1,0,0,1,-976.341,819.211)">
                <path d="M35771.1,16225.1C35780.4,16225.3 35789.5,16226.3 35798.3,16227.9L35795.7,16234.3C35787.8,16230.7 35779.6,16227.6 35771.1,16225.1Z" style="fill:rgb(204,231,255);"/>
            </g>
            <g transform="matrix(2.28137,0,0,2.03349,-43542.5,-17623.9)">
                <path d="M34348.5,17053.1C34376,17066.9 34394.8,17095.3 34394.8,17128.1C34394.8,17138 34393.1,17147.6 34389.9,17156.4C34360.6,17140.9 34364,17143.9 34355,17134.9C34346.3,17126.2 34353.1,17132.9 34335.7,17102.1C34335,17090.4 34345,17062.5 34348.5,17053.1Z" style="fill:rgb(232,244,255);"/>
            </g>
            <g transform="matrix(2.28137,0,0,2.03349,-43542.5,-17623.9)">
                <path d="M34337.8,17048.6C34341.5,17049.9 34345.1,17051.4 34348.5,17053.1C34345,17062.5 34335,17090.4 34335.7,17102.1C34336.5,17115.1 34346.3,17126.2 34355,17134.9C34364,17143.9 34360.6,17140.9 34389.9,17156.4C34378.3,17188.8 34347.3,17212 34310.9,17212C34307.6,17212 34304.4,17211.8 34301.3,17211.4C34306.5,17161.3 34292.8,17132.3 34259.3,17125.6C34263.4,17082.3 34296.1,17048.6 34335.7,17048.6L34337.8,17048.6Z" style="fill:rgb(232,244,255);"/>
            </g>
            <path d="M34822,17047.2C34903.7,17062.1 34965.7,17133.7 34965.7,17219.7C34965.7,17226.5 34965.3,17233.2 34964.5,17239.7C34959.9,17246.7 34942.1,17272 34928,17270C34906.1,17267 34862.2,17209 34834,17219.7C34789.5,17236.6 34781,17244.8 34790.2,17153C34793,17124.7 34821,17049.4 34822,17047.2Z" style="fill:rgb(86,255,158);stroke:rgb(124,92,35);stroke-width:5.61px;"/>
            <g transform="matrix(1,0,0,1,-255.915,151)">
                <path d="M34871.6,17049.9C34940.3,16978.2 34970.9,17031.7 34967.3,17225.5C34909.9,17196.7 34870.6,17137.2 34870.6,17068.7C34870.6,17062.3 34870.9,17056.1 34871.6,17049.9Z" style="fill:rgb(86,255,158);stroke:rgb(124,92,35);stroke-width:5.61px;"/>
            </g>
            <g transform="matrix(0.331497,0.168698,-0.168698,0.331497,25916,5431.6)">
                <path d="M35211.5,16756C35312.2,16756 35394,16834 35394,16834C35394,16834 35312.2,16912 35211.5,16912C35110.8,16912 35029,16834 35029,16834C35029,16834 35110.8,16756 35211.5,16756Z" style="fill:rgb(38,219,25);stroke:rgb(64,124,35);stroke-width:26.43px;"/>
            </g>
            <g transform="matrix(-0.263011,0.263011,-0.263011,-0.263011,48518.4,12105.6)">
                <path d="M35211.5,16756C35312.2,16756 35394,16834 35394,16834C35394,16834 35312.2,16912 35211.5,16912C35110.8,16912 35029,16834 35029,16834C35029,16834 35110.8,16756 35211.5,16756Z" style="fill:rgb(16,195,3);stroke:rgb(64,124,35);stroke-width:25.49px;"/>
            </g>
        </g>
    </g>
</svg>
