<?xml version="1.0" encoding="UTF-8" standalone="no"?>
<!DOCTYPE svg PUBLIC "-//W3C//DTD SVG 1.1//EN" "http://www.w3.org/Graphics/SVG/1.1/DTD/svg11.dtd">
<svg width="100%" height="100%" viewBox="0 0 208 199" version="1.1" xmlns="http://www.w3.org/2000/svg" xmlns:xlink="http://www.w3.org/1999/xlink" xml:space="preserve" xmlns:serif="http://www.serif.com/" style="fill-rule:evenodd;clip-rule:evenodd;stroke-linecap:round;stroke-linejoin:round;stroke-miterlimit:1.5;">
    <g transform="matrix(1,0,0,1,-632,-460)">
        <g id="finger_puppet">
            <g transform="matrix(0.697186,0,0,1,173.191,48)">
                <path d="M775,607.318C761.72,604.704 768.999,579.121 759,570C745.786,557.947 703.386,543.5 695.719,535C690.461,529.171 705.316,517.393 713,519C726.547,521.833 774.167,563.5 777,552C779.833,540.5 734.5,469.167 730,450C728.183,442.259 744.303,431.453 750,437C762.667,449.333 797,526.167 806,524C815,521.833 800.333,440.667 804,424C805.719,416.187 825.447,416.418 828,424C833.5,440.333 826.667,520 837,522C847.333,524 876.667,447.833 890,436C897.7,429.166 919.079,440.916 917,451C913.667,467.167 866.167,521.5 870,533C873.833,544.5 926.667,518.833 940,520C947.425,520.65 955.565,535.042 950,540C940.833,548.167 895.667,559.833 885,569C878.422,574.653 894.19,592.147 886,595C867.667,601.386 796.167,611.485 775,607.318Z" style="fill:rgb(0,255,191);stroke:white;stroke-width:5.8px;"/>
            </g>
            <g transform="matrix(0.41535,-0.278361,0.280565,0.418638,153.169,703.872)">
                <path d="M974,401.318C985,409.038 1027,408.705 1035,401.318C1043,393.932 1020.17,368.886 1022,357C1023.83,345.114 1055.17,354 1054,348C1052.83,342 1019.5,327.667 1015,321C1010.5,314.333 1024.83,296.833 1019,290C1013.17,283.167 989.333,279.667 980,280C973.068,280.248 966.424,285.968 963,292C959.5,298.167 965,312 959,317C953,322 930.333,345.667 932,352C933.667,358.333 961.167,341.78 969,355C976.833,368.22 963,393.599 974,401.318Z" style="fill:rgb(0,172,125);stroke:white;stroke-width:9.96px;"/>
            </g>
            <g transform="matrix(0.475464,-0.154707,0.155932,0.479228,165.877,490.197)">
                <path d="M974,401.318C985,409.038 1027,408.705 1035,401.318C1043,393.932 1020.17,368.886 1022,357C1023.83,345.114 1055.17,354 1054,348C1052.83,342 1019.5,327.667 1015,321C1010.5,314.333 1024.83,296.833 1019,290C1013.17,283.167 989.333,279.667 980,280C973.068,280.248 966.424,285.968 963,292C959.5,298.167 965,312 959,317C953,322 930.333,345.667 932,352C933.667,358.333 961.167,341.78 969,355C976.833,368.22 963,393.599 974,401.318Z" style="fill:rgb(0,172,125);stroke:white;stroke-width:9.96px;"/>
            </g>
            <g transform="matrix(0.435692,0.245301,-0.247244,0.439141,452.853,100.884)">
                <path d="M974,401.318C985,409.038 1027,408.705 1035,401.318C1043,393.932 1020.17,368.886 1022,357C1023.83,345.114 1055.17,354 1054,348C1052.83,342 1019.5,327.667 1015,321C1010.5,314.333 1024.83,296.833 1019,290C1013.17,283.167 989.333,279.667 980,280C973.068,280.248 966.424,285.968 963,292C959.5,298.167 965,312 959,317C953,322 930.333,345.667 932,352C933.667,358.333 961.167,341.78 969,355C976.833,368.22 963,393.599 974,401.318Z" style="fill:rgb(0,172,125);stroke:white;stroke-width:9.96px;"/>
            </g>
        </g>
    </g>
</svg>
