<?xml version="1.0" encoding="UTF-8" standalone="no"?>
<!DOCTYPE svg PUBLIC "-//W3C//DTD SVG 1.1//EN" "http://www.w3.org/Graphics/SVG/1.1/DTD/svg11.dtd">
<svg width="100%" height="100%" viewBox="0 0 153 249" version="1.1" xmlns="http://www.w3.org/2000/svg" xmlns:xlink="http://www.w3.org/1999/xlink" xml:space="preserve" xmlns:serif="http://www.serif.com/" style="fill-rule:evenodd;clip-rule:evenodd;stroke-linecap:round;stroke-linejoin:round;stroke-miterlimit:1.5;">
    <g transform="matrix(1,0,0,1,-599,-4)">
        <g id="hand_puppet">
            <g transform="matrix(1,0,0,1,13.4947,-47)">
                <rect x="631" y="203" width="44" height="90" style="fill:rgb(0,255,191);stroke:white;stroke-width:12.48px;"/>
            </g>
            <path d="M644,109C638.667,101 634.008,61.378 634,61C633.992,60.622 604,80 604,80C604,80 611.167,43.333 619,34C626.184,25.44 645.066,14.53 651,24C658.833,36.5 667.167,94.833 666,109C665.398,116.309 648.068,115.102 644,109Z" style="fill:rgb(0,255,191);stroke:white;stroke-width:8.78px;"/>
            <path d="M688,109C688,109 705.167,40.658 713,24C716.773,15.977 729.333,9.052 735,9.052C740.667,9.052 748.857,17.886 747,24C741.333,42.658 701,121 701,121L688,109Z" style="fill:rgb(0,255,191);stroke:white;stroke-width:8.78px;"/>
            <circle cx="666" cy="156" r="47" style="fill:rgb(0,255,191);stroke:white;stroke-width:8.78px;"/>
            <g transform="matrix(3.29713e-17,0.538462,-0.491452,3.00927e-17,817.958,-136.846)">
                <path d="M529,325C514.65,325 503,335.082 503,347.5C503,359.918 514.65,370 529,370C515.709,369.447 504.918,359.555 504.918,347.5C504.918,335.445 515.709,325.553 529,325Z" style="fill:rgb(226,226,226);stroke:white;stroke-width:9.7px;"/>
            </g>
            <g transform="matrix(3.29713e-17,0.538462,-0.491452,3.00927e-17,855.441,-136.846)">
                <path d="M529,325C514.65,325 503,335.082 503,347.5C503,359.918 514.65,370 529,370C515.709,369.447 504.918,359.555 504.918,347.5C504.918,335.445 515.709,325.553 529,325Z" style="fill:rgb(226,226,226);stroke:white;stroke-width:9.7px;"/>
            </g>
            <g transform="matrix(0.0237329,-0.595681,0.666138,0.02654,407.084,475.733)">
                <path d="M529,325C514.65,325 503,335.082 503,347.5C503,359.918 514.65,370 529,370C518.238,368.125 509.5,358.689 509.5,347.5C509.5,336.311 518.238,326.875 529,325Z" style="fill:rgb(0,172,125);stroke:white;stroke-width:1.31px;"/>
            </g>
            <g transform="matrix(0.0237329,-0.595681,0.666138,0.02654,437.458,476.164)">
                <path d="M529,325C514.65,325 503,335.082 503,347.5C503,359.918 514.65,370 529,370C518.238,368.125 509.5,358.689 509.5,347.5C509.5,336.311 518.238,326.875 529,325Z" style="fill:rgb(0,172,125);stroke:white;stroke-width:1.31px;"/>
            </g>
            <g transform="matrix(-1,-1.22465e-16,1.22465e-16,-1,1327.99,366.973)">
                <path d="M669.727,189.25C670.561,187.806 671,186.168 671,184.5C671,179.257 666.743,175 661.5,175C656.257,175 652,179.257 652,184.5C652,186.168 652.439,187.806 653.273,189.25L669.727,189.25Z" style="fill:rgb(255,2,79);stroke:white;stroke-width:0.83px;"/>
            </g>
            <g transform="matrix(1,0,0,1,0.612786,2)">
                <circle cx="665.882" cy="169.646" r="7.646" style="fill:rgb(60,60,60);stroke:white;stroke-width:0.83px;"/>
            </g>
        </g>
    </g>
</svg>
