<?xml version="1.0" encoding="UTF-8" standalone="no"?>
<!DOCTYPE svg PUBLIC "-//W3C//DTD SVG 1.1//EN" "http://www.w3.org/Graphics/SVG/1.1/DTD/svg11.dtd">
<svg width="100%" height="100%" viewBox="0 0 134 231" version="1.1" xmlns="http://www.w3.org/2000/svg" xmlns:xlink="http://www.w3.org/1999/xlink" xml:space="preserve" xmlns:serif="http://www.serif.com/" style="fill-rule:evenodd;clip-rule:evenodd;stroke-linecap:round;stroke-linejoin:round;stroke-miterlimit:1.5;">
    <g transform="matrix(1,0,0,1,-676,-829)">
        <g id="marionette">
            <path d="M693,887.497L697,960" style="fill:none;stroke:rgb(0,172,125);stroke-width:5px;"/>
            <g transform="matrix(0.978958,0.203847,-0.202459,0.964517,296.282,-108.371)">
                <path d="M693,887.497L697,960" style="fill:none;stroke:rgb(0,172,125);stroke-width:5.04px;"/>
            </g>
            <g transform="matrix(0.712256,0.234297,-0.197045,0.599011,358.568,205.875)">
                <rect x="673" y="782" width="173" height="27" style="fill:rgb(0,255,191);stroke:white;stroke-width:7.22px;"/>
            </g>
            <circle cx="740.376" cy="939" r="19" style="fill:rgb(0,255,191);stroke:white;stroke-width:5px;"/>
            <g transform="matrix(0.777014,0.317955,-0.271787,0.66419,532.898,82.8732)">
                <path d="M620,1037C615,1034.17 595,1034.17 590,1037C585.07,1039.79 585.07,1051.21 590,1054C595,1056.83 615,1056.83 620,1054C624.93,1051.21 624.93,1039.79 620,1037Z" style="fill:rgb(0,255,191);stroke:white;stroke-width:6.4px;"/>
            </g>
            <g transform="matrix(0.114884,0.831654,-0.710896,0.0982022,1402.48,435.047)">
                <path d="M620,1037C615,1034.17 595,1034.17 590,1037C585.07,1039.79 585.07,1051.21 590,1054C595,1056.83 615,1056.83 620,1054C624.93,1051.21 624.93,1039.79 620,1037Z" style="fill:rgb(0,255,191);stroke:white;stroke-width:6.4px;"/>
            </g>
            <g transform="matrix(-0.187062,0.818447,-0.699607,-0.1599,1596.32,707.463)">
                <path d="M620,1037C615,1034.17 595,1034.17 590,1037C585.07,1039.79 585.07,1051.21 590,1054C595,1056.83 615,1056.83 620,1054C624.93,1051.21 624.93,1039.79 620,1037Z" style="fill:rgb(0,255,191);stroke:white;stroke-width:6.4px;"/>
            </g>
            <g transform="matrix(-0.777014,0.317955,0.271787,0.66419,947.955,82.0721)">
                <path d="M620,1037C615,1034.17 595,1034.17 590,1037C585.07,1039.79 585.07,1051.21 590,1054C595,1056.83 615,1056.83 620,1054C624.93,1051.21 624.93,1039.79 620,1037Z" style="fill:rgb(0,255,191);stroke:white;stroke-width:6.4px;"/>
            </g>
            <g transform="matrix(0.500398,-0.358586,0.418018,0.583334,-39.5679,576.209)">
                <path d="M620,1037C615,1034.17 595,1034.17 590,1037C585.07,1039.79 585.07,1051.21 590,1054C595,1056.83 615,1056.83 620,1054C624.93,1051.21 624.93,1039.79 620,1037Z" style="fill:rgb(0,255,191);stroke:white;stroke-width:7.48px;"/>
            </g>
            <g transform="matrix(-0.0634435,0.612338,-0.713826,-0.0739586,1513.25,720.513)">
                <path d="M620,1037C615,1034.17 595,1034.17 590,1037C585.07,1039.79 585.07,1051.21 590,1054C595,1056.83 615,1056.83 620,1054C624.93,1051.21 624.93,1039.79 620,1037Z" style="fill:rgb(0,255,191);stroke:white;stroke-width:7.48px;"/>
            </g>
            <g transform="matrix(-0.0634435,0.612338,-0.713826,-0.0739586,1539.76,720.092)">
                <path d="M620,1037C615,1034.17 595,1034.17 590,1037C585.07,1039.79 585.07,1051.21 590,1054C595,1056.83 615,1056.83 620,1054C624.93,1051.21 624.93,1039.79 620,1037Z" style="fill:rgb(0,255,191);stroke:white;stroke-width:7.48px;"/>
            </g>
            <g transform="matrix(-0.500398,-0.358586,-0.418018,0.583334,1520.42,575.408)">
                <path d="M620,1037C615,1034.17 595,1034.17 590,1037C585.07,1039.79 585.07,1051.21 590,1054C595,1056.83 615,1056.83 620,1054C624.93,1051.21 624.93,1039.79 620,1037Z" style="fill:rgb(0,255,191);stroke:white;stroke-width:7.48px;"/>
            </g>
            <g transform="matrix(0.186132,-1.38778e-17,0,0.323901,584.566,641.642)">
                <path d="M918.137,993C880.867,972.667 796.255,970.667 758.984,991C723.284,1010.48 721.376,1113 721.376,1113L945,1113C945,1113 953.837,1012.48 918.137,993Z" style="fill:rgb(0,255,191);stroke:white;stroke-width:18.93px;"/>
            </g>
            <g transform="matrix(1.00494,0.089518,0.089518,2.62258,-62.3586,-1529.42)">
                <path d="M693,887.497L697,960" style="fill:none;stroke:rgb(0,172,125);stroke-width:2.42px;"/>
            </g>
            <g transform="matrix(0.973658,0.264396,-0.37187,2.59763,427.464,-1628.46)">
                <path d="M693,887.497L697,960" style="fill:none;stroke:rgb(0,172,125);stroke-width:2.42px;"/>
            </g>
            <g transform="matrix(0.678216,-0.221239,-0.193863,-0.594294,381.943,1501.13)">
                <rect x="673" y="782" width="173" height="27" style="fill:rgb(0,172,125);stroke:white;stroke-width:7.45px;"/>
            </g>
        </g>
    </g>
</svg>
