<?xml version="1.0" encoding="UTF-8" standalone="no"?>
<!DOCTYPE svg PUBLIC "-//W3C//DTD SVG 1.1//EN" "http://www.w3.org/Graphics/SVG/1.1/DTD/svg11.dtd">
<svg width="100%" height="100%" viewBox="0 0 97 248" version="1.1" xmlns="http://www.w3.org/2000/svg" xmlns:xlink="http://www.w3.org/1999/xlink" xml:space="preserve" xmlns:serif="http://www.serif.com/" style="fill-rule:evenodd;clip-rule:evenodd;stroke-linecap:round;stroke-linejoin:round;stroke-miterlimit:1.5;">
    <g transform="matrix(1,0,0,1,-734,-1206)">
        <g id="shadow_puppet" transform="matrix(0.245351,0,0,0.245351,553.679,918.353)">
            <g transform="matrix(0.999996,-0.00148672,-0.00148672,0.484853,-334.398,1640.47)">
                <path d="M1306,401L1308,1094" style="fill:none;stroke:rgb(0,172,125);stroke-width:30.97px;"/>
            </g>
            <g transform="matrix(0.110406,0.993887,-0.993887,0.110406,2381.41,617.362)">
                <path d="M1058,1486L1126,1505L1128,1522L1056,1506L1058,1486Z" style="fill:rgb(0,172,125);stroke:rgb(0,172,125);stroke-width:20.38px;"/>
            </g>
            <g transform="matrix(0.110406,0.993887,-0.993887,0.110406,2276.3,613.404)">
                <path d="M1058,1486L1126,1505L1128,1522L1056,1506L1058,1486Z" style="fill:rgb(0,172,125);stroke:rgb(0,172,125);stroke-width:20.38px;"/>
            </g>
            <path d="M751.71,1332C767.936,1339.5 849.317,1301.62 858,1336C878.882,1418.67 845.5,1745 877,1828C897.119,1881.01 1017.17,1843.33 1047,1834C1066.93,1827.77 1069.98,1787.51 1056,1772C1037.67,1751.67 948.89,1754.8 937,1712C912.833,1625 940.393,1320.17 911,1250C890.928,1202.09 787.19,1277.33 760.642,1291C748.206,1297.4 739.013,1326.13 751.71,1332Z" style="fill:rgb(201,244,233);stroke:rgb(0,172,125);stroke-width:20.38px;"/>
            <g transform="matrix(0.741288,0.582357,-0.291723,0.371337,721.568,630.268)">
                <path d="M1050.24,1492.78L1126,1505L1128,1522C1108.34,1513.78 1084.43,1508.38 1056,1506L1050.24,1492.78Z" style="fill:none;stroke:rgb(0,172,125);stroke-width:27.33px;"/>
            </g>
            <g transform="matrix(0.110406,0.993887,-0.993887,0.110406,2310.46,616.213)">
                <path d="M1058,1486L1126,1505L1128,1522L1056,1506L1058,1486Z" style="fill:rgb(0,172,125);stroke:rgb(0,172,125);stroke-width:20.38px;"/>
            </g>
            <g transform="matrix(0.110406,0.993887,-0.993887,0.110406,2407.26,618.223)">
                <path d="M1046.18,1483.68L1126,1505L1128,1522L1043.41,1501.58L1046.18,1483.68Z" style="fill:rgb(0,172,125);stroke:rgb(0,172,125);stroke-width:20.38px;"/>
            </g>
            <g transform="matrix(1,0,0,1,-20.9265,-23)">
                <path d="M876,1261C874.923,1269.16 864.167,1222.67 864,1215C863.92,1211.33 873.07,1211.88 875,1215C879.333,1222 897.571,1258.22 890,1257C887.879,1256.66 876.185,1259.6 876,1261Z" style="fill:rgb(0,172,125);stroke:rgb(0,172,125);stroke-width:20.38px;"/>
            </g>
            <g transform="matrix(1,0,0,1,2.07348,-28.6519)">
                <path d="M876,1261C868.347,1257.96 864.167,1222.67 864,1215C863.92,1211.33 873.07,1211.88 875,1215C877.632,1219.25 882.537,1231 886.022,1241.29C888.275,1247.94 895.118,1263.71 892.222,1262.88C890.047,1262.26 877.001,1261.4 876,1261Z" style="fill:rgb(0,172,125);stroke:rgb(0,172,125);stroke-width:20.38px;"/>
            </g>
            <g transform="matrix(0.994711,0.10271,-0.10271,0.994711,159.718,-106.817)">
                <path d="M876,1261C867.805,1260.21 864.167,1222.67 864,1215C863.92,1211.33 873.07,1211.88 875,1215C879.333,1222 886.988,1263.68 887.459,1271.34C887.614,1273.86 878.638,1261.26 876,1261Z" style="fill:rgb(0,172,125);stroke:rgb(0,172,125);stroke-width:20.38px;"/>
            </g>
        </g>
    </g>
</svg>
