<?xml version="1.0" encoding="UTF-8" standalone="no"?>
<!DOCTYPE svg PUBLIC "-//W3C//DTD SVG 1.1//EN" "http://www.w3.org/Graphics/SVG/1.1/DTD/svg11.dtd">
<svg width="100%" height="100%" viewBox="0 0 583 537" version="1.1" xmlns="http://www.w3.org/2000/svg" xmlns:xlink="http://www.w3.org/1999/xlink" xml:space="preserve" xmlns:serif="http://www.serif.com/" style="fill-rule:evenodd;clip-rule:evenodd;stroke-linejoin:round;stroke-miterlimit:2;">
    <g transform="matrix(1,0,0,1,-4288,-11680)">
        <g id="stars" transform="matrix(1,0,0,1,0,-0.230359)">
            <rect x="4288" y="11680.2" width="582.084" height="536.442" style="fill:none;"/>
            <g transform="matrix(1,0,0,1,0,0.230359)">
                <g transform="matrix(0.83747,-0.208753,0.208753,0.83747,-1820.56,2862.91)">
                    <path d="M4372,11986L4390.86,12044L4451.89,12044L4402.52,12079.9L4421.37,12138L4372,12102.1L4322.63,12138L4341.48,12079.9L4292.11,12044L4353.14,12044L4372,11986Z" style="fill:rgb(255,251,150);"/>
                </g>
                <g transform="matrix(0.967615,0.490754,-0.471176,0.929012,6029.84,-1247.22)">
                    <path d="M4372,11986L4390.86,12044L4451.89,12044L4402.52,12079.9L4421.37,12138L4372,12102.1L4322.63,12138L4341.48,12079.9L4292.11,12044L4353.14,12044L4372,11986Z" style="fill:rgb(255,251,150);"/>
                </g>
                <g transform="matrix(0.68933,0.14114,-0.135509,0.661829,3351.96,3554.58)">
                    <path d="M4372,11986L4390.86,12044L4451.89,12044L4402.52,12079.9L4421.37,12138L4372,12102.1L4322.63,12138L4341.48,12079.9L4292.11,12044L4353.14,12044L4372,11986Z" style="fill:rgb(255,251,150);"/>
                </g>
                <g transform="matrix(0.820357,-0.180649,0.173442,0.787628,-880.525,3265.75)">
                    <path d="M4372,11986L4390.86,12044L4451.89,12044L4402.52,12079.9L4421.37,12138L4372,12102.1L4322.63,12138L4341.48,12079.9L4292.11,12044L4353.14,12044L4372,11986Z" style="fill:rgb(255,251,150);"/>
                </g>
                <g transform="matrix(0.789503,0.286887,-0.275442,0.758006,4312.07,1352.44)">
                    <path d="M4372,11986L4390.86,12044L4451.89,12044L4402.52,12079.9L4421.37,12138L4372,12102.1L4322.63,12138L4341.48,12079.9L4292.11,12044L4353.14,12044L4372,11986Z" style="fill:rgb(255,251,150);"/>
                </g>
                <g transform="matrix(0.622065,-0.203218,0.203218,0.622065,-665.657,5300.27)">
                    <path d="M4372,11986L4390.86,12044L4451.89,12044L4402.52,12079.9L4421.37,12138L4372,12102.1L4322.63,12138L4341.48,12079.9L4292.11,12044L4353.14,12044L4372,11986Z" style="fill:rgb(255,251,150);"/>
                </g>
                <g transform="matrix(-0.253951,0.967217,-0.967217,-0.253951,17448.9,10725.1)">
                    <path d="M4372,11986L4390.86,12044L4451.89,12044L4402.52,12079.9L4421.37,12138L4372,12102.1L4322.63,12138L4341.48,12079.9L4292.11,12044L4353.14,12044L4372,11986Z" style="fill:rgb(255,251,150);"/>
                </g>
                <g transform="matrix(0.71759,0.0617025,-0.0617025,0.71759,2321.31,2809.65)">
                    <path d="M4372,11986L4390.86,12044L4451.89,12044L4402.52,12079.9L4421.37,12138L4372,12102.1L4322.63,12138L4341.48,12079.9L4292.11,12044L4353.14,12044L4372,11986Z" style="fill:rgb(255,251,150);"/>
                </g>
            </g>
        </g>
    </g>
</svg>
