<?xml version="1.0" encoding="UTF-8" standalone="no"?>
<!DOCTYPE svg PUBLIC "-//W3C//DTD SVG 1.1//EN" "http://www.w3.org/Graphics/SVG/1.1/DTD/svg11.dtd">
<svg width="100%" height="100%" viewBox="0 0 66 68" version="1.1" xmlns="http://www.w3.org/2000/svg" xmlns:xlink="http://www.w3.org/1999/xlink" xml:space="preserve" xmlns:serif="http://www.serif.com/" style="fill-rule:evenodd;clip-rule:evenodd;stroke-linecap:round;stroke-linejoin:round;stroke-miterlimit:1.5;">
    <g transform="matrix(1,0,0,1,355,-76)">
        <g>
            <g transform="matrix(1,0,0,0.281731,3,89.598)">
                <path d="M-348.213,127.526L-348.213,186" style="fill:none;stroke:rgb(172,0,64);stroke-width:4.08px;"/>
            </g>
            <g transform="matrix(1,0,0,0.356678,0,75.6579)">
                <path d="M-296.002,120.714L-296.002,186" style="fill:none;stroke:rgb(172,0,64);stroke-width:4px;"/>
            </g>
            <g transform="matrix(1,0,0,0.161468,0,75.4678)">
                <path d="M-306,90L-306,164" style="fill:none;stroke:rgb(172,0,64);stroke-width:2.79px;"/>
            </g>
            <g transform="matrix(1,0,0,0.256757,0,66.8919)">
                <path d="M-342,90L-342,164" style="fill:none;stroke:rgb(172,0,64);stroke-width:2.74px;"/>
            </g>
            <g transform="matrix(1,0,0,1,-368.002,-135.417)">
                <g transform="matrix(0.349004,-0.303296,0.122166,0.467513,26.1382,153.567)">
                    <rect x="-77" y="168" width="144" height="16" style="fill:rgb(193,89,89);"/>
                </g>
                <g transform="matrix(0.400634,0.230836,-0.401994,0.26813,118.648,191.329)">
                    <rect x="-77" y="168" width="144" height="16" style="fill:rgb(215,129,129);stroke:rgb(251,152,152);stroke-width:0.57px;"/>
                </g>
            </g>
        </g>
    </g>
</svg>
